# xmcd
#
# Track frame offsets:
#	150
#	14330
#	33909
#	45742
#	63984
#	75364
#	101698
#	115430
#	143409
#	156952
#	171597
#	189705
#
# Disc length: 2937 seconds
#
# Revision: 0
# Processed by: cddbd v1.5.1PL2 Copyright (c) Steve Scherf et al.
# Submitted via: dBpowerAMP V4.0
#
DISCID=9b0b770c
DTITLE=Don Convay - Checkin' in with
DYEAR=1900
DGENRE=Blues
TTITLE0=It's better to have (and don't need)
TTITLE1=I was checkin' out she was checkin' in
TTITLE2=Hot blood
TTITLE3=We can't make it no more
TTITLE4=Hold you to your promise
TTITLE5=A mind is a terrible thing to waste
TTITLE6=Overtime man
TTITLE7=Somebody's been enjoying my home
TTITLE8=Money (that's what i want)
TTITLE9=I stayed away too long
TTITLE10=Dungeon #3
TTITLE11=There's somthing on your mind
EXTD=
EXTT0=
EXTT1=
EXTT2=
EXTT3=
EXTT4=
EXTT5=
EXTT6=
EXTT7=
EXTT8=
EXTT9=
EXTT10=
EXTT11=
PLAYORDER=
